<?xml version="1.0" encoding="UTF-8" standalone="no"?>
<!-- Created with Inkscape (http://www.inkscape.org/) -->

<svg
   xmlns:dc="http://purl.org/dc/elements/1.1/"
   xmlns:cc="http://creativecommons.org/ns#"
   xmlns:rdf="http://www.w3.org/1999/02/22-rdf-syntax-ns#"
   xmlns:svg="http://www.w3.org/2000/svg"
   xmlns="http://www.w3.org/2000/svg"
   xmlns:sodipodi="http://sodipodi.sourceforge.net/DTD/sodipodi-0.dtd"
   xmlns:inkscape="http://www.inkscape.org/namespaces/inkscape"
   width="250pt"
   height="250pt"
   viewBox="0 0 88.194442 88.194442"
   version="1.1"
   id="svg5766"
   inkscape:version="0.92.2 5c3e80d, 2017-08-06"
   sodipodi:docname="camera_button.svg">
  <defs
     id="defs5760" />
  <sodipodi:namedview
     id="base"
     pagecolor="#ffffff"
     bordercolor="#666666"
     borderopacity="1.0"
     inkscape:pageopacity="0.0"
     inkscape:pageshadow="2"
     inkscape:zoom="1.979899"
     inkscape:cx="15.235647"
     inkscape:cy="118.7937"
     inkscape:document-units="pt"
     inkscape:current-layer="layer1"
     showgrid="false"
     units="pt"
     inkscape:pagecheckerboard="true"
     inkscape:window-width="2560"
     inkscape:window-height="1418"
     inkscape:window-x="0"
     inkscape:window-y="0"
     inkscape:window-maximized="1" />
  <metadata
     id="metadata5763">
    <rdf:RDF>
      <cc:Work
         rdf:about="">
        <dc:format>image/svg+xml</dc:format>
        <dc:type
           rdf:resource="http://purl.org/dc/dcmitype/StillImage" />
        <dc:title></dc:title>
      </cc:Work>
    </rdf:RDF>
  </metadata>
  <g
     inkscape:label="Layer 1"
     inkscape:groupmode="layer"
     id="layer1"
     transform="translate(0,-208.80556)">
    <path
       style="fill:#ffffff;fill-opacity:1;stroke:none;stroke-width:1.03150535;stroke-miterlimit:4;stroke-dasharray:none"
       d="M 140 60 C 121.53333 60 106.66602 74.867318 106.66602 93.333984 L 84.394531 93.333984 C 67.186088 93.333984 53.333984 107.18609 53.333984 124.39453 L 53.333984 242.27148 C 53.333984 259.47993 67.186088 273.33398 84.394531 273.33398 L 248.9375 273.33398 C 266.14594 273.33398 280 259.47993 280 242.27148 L 280 124.39453 C 280 107.18609 266.14594 93.333984 248.9375 93.333984 L 226.66602 93.333984 C 226.66602 74.867318 211.80065 60 193.33398 60 L 140 60 z M 166.66602 132 A 51.330712 46.666666 0 0 1 217.99805 178.66602 A 51.330712 46.666666 0 0 1 166.66602 225.33398 A 51.330712 46.666666 0 0 1 115.33594 178.66602 A 51.330712 46.666666 0 0 1 166.66602 132 z "
       transform="matrix(0.26458332,0,0,0.26458332,0,208.80556)"
       id="rect5768" />
    <circle
       style="fill:#fffffd;fill-opacity:1;stroke:none;stroke-width:0.30088541;stroke-miterlimit:4;stroke-dasharray:none"
       id="path6320"
       cx="44.097221"
       cy="256.07776"
       r="6.1736107" />
  </g>
</svg>
