<?xml version="1.0" encoding="UTF-8" standalone="no"?>
<!-- Created with Inkscape (http://www.inkscape.org/) -->

<svg
   xmlns:dc="http://purl.org/dc/elements/1.1/"
   xmlns:cc="http://creativecommons.org/ns#"
   xmlns:rdf="http://www.w3.org/1999/02/22-rdf-syntax-ns#"
   xmlns:svg="http://www.w3.org/2000/svg"
   xmlns="http://www.w3.org/2000/svg"
   xmlns:sodipodi="http://sodipodi.sourceforge.net/DTD/sodipodi-0.dtd"
   xmlns:inkscape="http://www.inkscape.org/namespaces/inkscape"
   width="250pt"
   height="250pt"
   viewBox="0 0 88.194447 88.194444"
   version="1.1"
   id="svg6952"
   inkscape:version="0.92.2 5c3e80d, 2017-08-06"
   sodipodi:docname="refresh_button.svg"
   inkscape:export-filename="/Users/tenghamn/Work/real-time-frame-analysis/assets/refresh_button.png"
   inkscape:export-xdpi="25.35"
   inkscape:export-ydpi="25.35">
  <defs
     id="defs6946" />
  <sodipodi:namedview
     id="base"
     pagecolor="#ffffff"
     bordercolor="#666666"
     borderopacity="1.0"
     inkscape:pageopacity="0.0"
     inkscape:pageshadow="2"
     inkscape:zoom="2.8"
     inkscape:cx="185.42695"
     inkscape:cy="189.19004"
     inkscape:document-units="pt"
     inkscape:current-layer="layer1"
     showgrid="false"
     units="pt"
     inkscape:pagecheckerboard="true"
     inkscape:window-width="2560"
     inkscape:window-height="1418"
     inkscape:window-x="0"
     inkscape:window-y="0"
     inkscape:window-maximized="1" />
  <metadata
     id="metadata6949">
    <rdf:RDF>
      <cc:Work
         rdf:about="">
        <dc:format>image/svg+xml</dc:format>
        <dc:type
           rdf:resource="http://purl.org/dc/dcmitype/StillImage" />
        <dc:title></dc:title>
      </cc:Work>
    </rdf:RDF>
  </metadata>
  <g
     inkscape:label="Layer 1"
     inkscape:groupmode="layer"
     id="layer1"
     transform="translate(0,-208.80556)">
    <path
       style="fill:#ffffff;fill-opacity:1;stroke:none;stroke-width:0.26458332px;stroke-linecap:butt;stroke-linejoin:miter;stroke-opacity:1"
       d="m 53.389137,237.94123 20.202949,-5.86584 -5.0839,17.96107 z"
       id="path7543"
       inkscape:connector-curvature="0"
       sodipodi:nodetypes="cccc" />
    <path
       style="fill:#ffffff;fill-opacity:1;stroke:none;stroke-width:1.16850388;stroke-miterlimit:4;stroke-dasharray:none"
       d="M 166.66602 53.333984 A 113.33333 113.33333 0 0 0 53.333984 166.66602 A 113.33333 113.33333 0 0 0 166.66602 280 A 113.33333 113.33333 0 0 0 276.68945 193.33398 L 241.99023 193.33398 A 79.999999 79.999999 0 0 1 166.66602 246.66602 A 79.999999 79.999999 0 0 1 86.666016 166.66602 A 79.999999 79.999999 0 0 1 166.66602 86.666016 A 79.999999 79.999999 0 0 1 230.50195 118.57227 L 269.14062 118.57227 A 113.33333 113.33333 0 0 0 166.66602 53.333984 z "
       transform="matrix(0.26458333,0,0,0.26458333,0,208.80556)"
       id="path7545" />
  </g>
</svg>
